<?xml version="1.0" encoding="utf-8"?>
<!-- Generator: Adobe Illustrator 21.0.0, SVG Export Plug-In . SVG Version: 6.00 Build 0)  -->
<svg version="1.1" id="Layer_1" xmlns="http://www.w3.org/2000/svg" xmlns:xlink="http://www.w3.org/1999/xlink" x="0px" y="0px"
	 width="3000px" height="2000px" viewBox="0 0 3000 2000" style="enable-background:new 0 0 3000 2000;" xml:space="preserve">
<style type="text/css">
	.st0{fill-rule:evenodd;clip-rule:evenodd;fill:#C2D5D1;}
	.st1{fill-rule:evenodd;clip-rule:evenodd;fill:#A1BDBA;}
	.st2{fill-rule:evenodd;clip-rule:evenodd;fill:#9AB3AF;}
	.st3{fill-rule:evenodd;clip-rule:evenodd;fill:#E6E6E5;}
	.st4{fill-rule:evenodd;clip-rule:evenodd;fill:#785454;}
	.st5{fill-rule:evenodd;clip-rule:evenodd;fill:#FFFFFF;}
	.st6{fill-rule:evenodd;clip-rule:evenodd;fill:#FABDAC;}
	.st7{fill-rule:evenodd;clip-rule:evenodd;fill:#99CCCC;}
	.st8{fill-rule:evenodd;clip-rule:evenodd;fill:#8BB6B6;}
	.st9{fill-rule:evenodd;clip-rule:evenodd;fill:#F18485;}
	.st10{fill-rule:evenodd;clip-rule:evenodd;fill:#EBA994;}
	.st11{fill-rule:evenodd;clip-rule:evenodd;fill:#676767;}
	.st12{fill-rule:evenodd;clip-rule:evenodd;fill:#FBC5B5;}
	.st13{fill-rule:evenodd;clip-rule:evenodd;fill:#7EA5A6;}
	.st14{fill-rule:evenodd;clip-rule:evenodd;fill:#8DB8B8;}
	.st15{fill-rule:evenodd;clip-rule:evenodd;fill:#CCCCCC;}
	.st16{fill-rule:evenodd;clip-rule:evenodd;fill:#F1F0F0;}
	.st17{fill-rule:evenodd;clip-rule:evenodd;fill:#D2E3DF;}
	.st18{fill-rule:evenodd;clip-rule:evenodd;fill:#53BA65;}
	.st19{fill-rule:evenodd;clip-rule:evenodd;fill:#C8A874;}
	.st20{fill-rule:evenodd;clip-rule:evenodd;fill:#339967;}
	.st21{fill-rule:evenodd;clip-rule:evenodd;fill:#F68C46;}
	.st22{fill-rule:evenodd;clip-rule:evenodd;fill:#9696CA;}
	.st23{fill-rule:evenodd;clip-rule:evenodd;fill:#E79762;}
	.st24{fill-rule:evenodd;clip-rule:evenodd;fill:#5D5A5A;}
	.st25{fill-rule:evenodd;clip-rule:evenodd;fill:#989898;}
	.st26{fill-rule:evenodd;clip-rule:evenodd;fill:#F26767;}
	.st27{fill-rule:evenodd;clip-rule:evenodd;fill:#F499C1;}
	.st28{fill-rule:evenodd;clip-rule:evenodd;fill:#E57EB2;}
	.st29{fill-rule:evenodd;clip-rule:evenodd;fill:#4A8181;}
	.st30{fill-rule:evenodd;clip-rule:evenodd;fill:#548C8D;}
	.st31{fill-rule:evenodd;clip-rule:evenodd;fill:#638F8F;}
	.st32{fill-rule:evenodd;clip-rule:evenodd;fill:#629D9D;}
	.st33{fill-rule:evenodd;clip-rule:evenodd;fill:#A1C2BD;}
</style>
<g>
	<rect y="0" class="st0" width="3000" height="2000"/>
	<rect y="0" class="st1" width="3000" height="360"/>
	<g>
		<rect x="1080" y="240" class="st2" width="846.9" height="515.1"/>
		<rect x="2000" y="240" class="st2" width="846.9" height="515.1"/>
		<circle class="st3" cx="1200" cy="500" r="20"/>
		<circle class="st3" cx="2140" cy="500" r="20"/>
	</g>
	<g>
		<path class="st4" d="M2064.4,435.9c-8.5,0-16.2,2.5-22.4,6.7c3.3-0.8,6.7-1.3,10.3-1.3c23.9,0,45.5,19.4,48.3,43.3
			c1.8,15.4-4.7,28.9-16,36.6c18.3-4.7,30.4-21.7,28.1-42.1C2110,455.3,2088.4,435.9,2064.4,435.9z"/>
		<circle class="st4" cx="2054.3" cy="474.7" r="43.3"/>
		<circle class="st4" cx="1874.6" cy="556.1" r="103"/>
		<path class="st5" d="M2066.1,617.2c-9.5-19.2-32.8-27-52-17.4c-19.2,9.5-27,32.8-17.4,52l81.4,163c9.5,19.2,32.8,27,52,17.4
			c19.2-9.5,27-32.8,17.4-52L2066.1,617.2z"/>
		<circle class="st5" cx="2131" cy="788.9" r="63.5"/>
		<path class="st6" d="M2293.9,768.7l-141.4-17.2c-21.3-2.5-40.5,12.7-43.1,34c-2.5,21.3,12.7,40.5,34,43.1l141.4,17.2
			c21.3,2.5,40.5-12.7,43.1-34C2330.4,790.5,2315.2,771.2,2293.9,768.7z"/>
		<path class="st5" d="M1887.9,603.6c-17.1-12.8-41.3-9.3-54.1,7.7l-116.6,155.4c-12.8,17.1-9.3,41.3,7.7,54.1
			c17.1,12.8,41.3,9.3,54.1-7.7l116.6-155.4C1908.4,640.6,1905,616.4,1887.9,603.6z"/>
		<circle class="st5" cx="1750" cy="779.1" r="63.5"/>
		<path class="st5" d="M1948.3,576.5c-55.9,0-101.7,57.8-101.7,128.5v220.2c0,70.7,45.8,128.5,101.7,128.5
			c55.9,0,101.7-57.8,101.7-128.5V705C2049.9,634.4,2004.2,576.5,1948.3,576.5z"/>
		<path class="st7" d="M2021.8,695.6h-146.7c-21,0-38.2,17.2-38.2,38.2v313.1c0,21,17.2,38.2,38.2,38.2h146.7
			c21,0,38.2-17.2,38.2-38.2V733.8C2059.9,712.7,2042.8,695.6,2021.8,695.6z"/>
		<path class="st6" d="M1980.1,504.3c-24.3-6.5-49.5,8-56,32.4l-20.3,75.8c-6.5,24.3,8,49.5,32.4,56c24.3,6.5,49.5-8,56-32.4
			l20.3-75.8C2019,536,2004.4,510.8,1980.1,504.3z"/>
		<path class="st8" d="M1905,564.7h-17.7c-7.8,0-14.2,6.4-14.2,14.2v162c0,7.8,6.4,14.2,14.2,14.2h17.7c7.8,0,14.2-6.4,14.2-14.2
			v-162C1919.2,571.1,1912.8,564.7,1905,564.7z"/>
		<path class="st8" d="M2013.5,564.7h-17.7c-7.8,0-14.2,6.4-14.2,14.2v162c0,7.8,6.4,14.2,14.2,14.2h17.7c7.8,0,14.2-6.4,14.2-14.2
			v-162C2027.7,571.1,2021.3,564.7,2013.5,564.7z"/>
		<path class="st6" d="M2075.4,462.7c-1.6-55-48-98.8-103-97.2c-55,1.6-98.8,48-97.2,103l1.3,45.5c1.6,55,48,98.8,103,97.2
			c55-1.6,98.8-48,97.2-103L2075.4,462.7z"/>
		<g>
			<circle class="st9" cx="2025.1" cy="550.9" r="8.5"/>
			<circle class="st9" cx="2024.2" cy="557.8" r="5.3"/>
		</g>
		<path class="st6" d="M1874.9,457.7c-17.3-2.2-31.2,10.1-31.2,27.3c0,17.3,14,33,31.2,35.1c17.3,2.2,31.2-10.1,31.2-27.3
			C1906.2,475.6,1892.2,459.9,1874.9,457.7z"/>
		<path class="st10" d="M1874.9,474.7c-7.9-1-14.2,4.6-14.2,12.5c0,7.9,6.4,15,14.2,16c7.9,1,14.2-4.6,14.2-12.5
			C1889.2,482.9,1882.8,475.7,1874.9,474.7z"/>
		<circle class="st4" cx="1933.8" cy="412.1" r="78.9"/>
		<path class="st10" d="M2075.4,462.7c-1.6-55-48-98.8-103-97.2c-4.9,0.1-9.7,0.6-14.4,1.5c45.7,8.1,81.3,47.6,82.8,95.7l1.3,45.5
			c1.5,50.2-34.7,93.1-82.8,101.5c6.6,1.2,13.3,1.7,20.3,1.5c55-1.6,98.8-48,97.2-103L2075.4,462.7z"/>
		<path class="st7" d="M1990.3,300h-115.1v171.5H2076v-85.8C2076,338.6,2037.4,300,1990.3,300z"/>
		<path class="st7" d="M1893.6,440.8h-34.3c-8.5,0-15.4,6.9-15.4,15.4c0,8.4,6.9,15.4,15.4,15.4h34.3c8.5,0,15.4-6.9,15.4-15.4
			C1908.9,447.7,1902,440.8,1893.6,440.8z"/>
		<path class="st10" d="M1675.2,634.5h-76.5c-3.9,11.9-2,25.5,6.3,36.1l99.9,126.9c13.2,16.8,37.6,19.7,54.4,6.5
			c16.8-13.2,19.7-37.6,6.5-54.4L1675.2,634.5z"/>
		<path class="st6" d="M1675.2,634.5h-55.4c1.4,4.5,3.6,8.9,6.7,12.9l99.9,126.9c11.1,14.1,30,18.4,45.7,11.7
			c4-12,2.1-25.6-6.3-36.3L1675.2,634.5z"/>
		<path class="st6" d="M1581.2,634.5c-4.3,7.8-6.8,16.8-6.8,26.4c0,30.3,24.5,54.8,54.8,54.8c30.3,0,54.8-24.5,54.8-54.8
			c0-9.6-2.5-18.6-6.8-26.4H1581.2z"/>
		<circle class="st5" cx="1896.2" cy="702.2" r="11.7"/>
		<circle class="st5" cx="2004.7" cy="702.2" r="11.7"/>
		<path class="st8" d="M1889.1,880.7c-0.2,1.9-0.3,3.9-0.3,5.9c0,32.9,26.7,59.6,59.6,59.6s59.6-26.7,59.6-59.6c0-2-0.1-4-0.3-5.9
			H1889.1z"/>
		<g>
			<path class="st11" d="M2269.6,720.4c-2.2-5.5-8.4-8.2-14-6c-5.5,2.2-8.2,8.4-6,14l91.5,229.6c2.2,5.5,8.4,8.2,14,6
				c5.5-2.2,8.2-8.4,6-14L2269.6,720.4z"/>
			<path class="st11" d="M2344.6,924.7c-14.8,0-21.1,22.7-14.2,50.6c6.9,28,24.5,50.6,39.2,50.6s21.1-22.7,14.2-50.6
				C2377,947.4,2359.4,924.7,2344.6,924.7z"/>
		</g>
		<path class="st10" d="M2316.6,786.6c-2.5,21.3-21.8,36.5-43.1,34l-141.4-17.2c-9-1.1-16.9-5.1-22.9-11.1
			c1.1,18.4,15.2,34,34.2,36.2l141.4,17.2c21.3,2.5,40.5-12.7,43.1-34c1.4-12.3-3-23.9-11.1-32
			C2316.9,782,2316.8,784.3,2316.6,786.6z"/>
		<ellipse class="st6" cx="2297.6" cy="807.9" rx="46.6" ry="46.6"/>
		<g>
			<path class="st4" d="M2009.6,493.6L2009.6,493.6c-2.5-1.5-5.4-2.3-8.4-2.3c-2.2,0-4.4,0.4-6.4,1.3c-2,0.8-3.9,2.1-5.5,3.6
				c-1.9,1.9-1.9,5,0,6.9c1.9,1.9,5,1.9,6.9,0c0.7-0.7,1.5-1.2,2.3-1.5c0.8-0.3,1.8-0.5,2.7-0.5c1.3,0,2.5,0.3,3.5,0.9
				c1.1,0.6,2,1.5,2.6,2.6c1.3,2.3,4.3,3.1,6.6,1.8c2.3-1.3,3.1-4.3,1.8-6.6C2014.3,497.1,2012.1,495,2009.6,493.6z"/>
			<path class="st4" d="M2055.1,492.6c-2-0.8-4.2-1.3-6.4-1.3c-3,0-5.9,0.8-8.4,2.3h0c-2.5,1.4-4.6,3.5-6.1,6.1
				c-1.3,2.3-0.5,5.3,1.8,6.6c2.3,1.3,5.3,0.6,6.6-1.8c0.6-1.1,1.5-2,2.6-2.6c1-0.6,2.3-0.9,3.5-0.9c1,0,1.9,0.2,2.7,0.5
				c0.8,0.3,1.6,0.9,2.3,1.5c1.9,1.9,5,1.9,6.9,0c1.9-1.9,1.9-5,0-6.9C2059,494.7,2057.1,493.4,2055.1,492.6z"/>
		</g>
		<ellipse class="st12" cx="1959.7" cy="531.9" rx="31.1" ry="16.2"/>
		<path class="st5" d="M2009.1,1074.1h-355.4c-4.1,0-7.5,3.4-7.5,7.5c0,4.1,3.4,7.5,7.5,7.5h355.4c4.1,0,7.5-3.4,7.5-7.5
			C2016.6,1077.5,2013.2,1074.1,2009.1,1074.1z"/>
	</g>
	<g>
		<path class="st3" d="M1743.9,627.1h-229.5c-5.8,0-10.5,4.7-10.5,10.5v0c0,5.8,4.7,10.5,10.5,10.5h229.5c5.8,0,10.5-4.7,10.5-10.5
			v0C1754.4,631.8,1749.7,627.1,1743.9,627.1z"/>
		<path class="st5" d="M1761.8,615.9h-265.2c-5.8,0-10.5,4.7-10.5,10.5v0c0,5.8,4.7,10.5,10.5,10.5h265.2c5.8,0,10.5-4.7,10.5-10.5
			v0C1772.3,620.6,1767.5,615.9,1761.8,615.9z"/>
	</g>
	<rect y="914" class="st13" width="2189" height="861.6"/>
	<rect y="1146.8" class="st14" width="2189" height="46.6"/>
	<g>
		<g>
			<g>
				<path class="st3" d="M312.8,1010.9H108.9c-5.1,0-9.3,4.2-9.3,9.3v0c0,5.1,4.2,9.3,9.3,9.3h203.8c5.1,0,9.3-4.2,9.3-9.3v0
					C322,1015.1,317.9,1010.9,312.8,1010.9z"/>
				<path class="st15" d="M181.7,1010.9h-72.8c-5.1,0-9.3,4.2-9.3,9.3v0c0,5.1,4.2,9.3,9.3,9.3h72.8c5.1,0,9.3-4.2,9.3-9.3v0
					C191,1015.1,186.8,1010.9,181.7,1010.9z"/>
				<path class="st5" d="M328.6,1000.9H93.1c-5.1,0-9.3,4.2-9.3,9.3c0,5.1,4.2,9.3,9.3,9.3h235.5c5.1,0,9.3-4.2,9.3-9.3
					C337.9,1005.1,333.7,1000.9,328.6,1000.9z"/>
			</g>
			<g>
				<path class="st3" d="M312.8,1034.4H108.9c-5.1,0-9.3,4.2-9.3,9.3c0,5.1,4.2,9.3,9.3,9.3h203.8c5.1,0,9.3-4.2,9.3-9.3
					C322,1038.5,317.9,1034.4,312.8,1034.4z"/>
				<path class="st15" d="M181.7,1034.4h-72.8c-5.1,0-9.3,4.2-9.3,9.3c0,5.1,4.2,9.3,9.3,9.3h72.8c5.1,0,9.3-4.2,9.3-9.3
					C191,1038.5,186.8,1034.4,181.7,1034.4z"/>
				<path class="st5" d="M328.6,1024.4H93.1c-5.1,0-9.3,4.2-9.3,9.3v0c0,5.1,4.2,9.3,9.3,9.3h235.5c5.1,0,9.3-4.2,9.3-9.3v0
					C337.9,1028.6,333.7,1024.4,328.6,1024.4z"/>
			</g>
			<g>
				<path class="st3" d="M312.8,1057.8H108.9c-5.1,0-9.3,4.2-9.3,9.3v0c0,5.1,4.2,9.3,9.3,9.3h203.8c5.1,0,9.3-4.2,9.3-9.3v0
					C322,1062,317.9,1057.8,312.8,1057.8z"/>
				<path class="st15" d="M181.7,1057.8h-72.8c-5.1,0-9.3,4.2-9.3,9.3v0c0,5.1,4.2,9.3,9.3,9.3h72.8c5.1,0,9.3-4.2,9.3-9.3v0
					C191,1062,186.8,1057.8,181.7,1057.8z"/>
				<path class="st5" d="M328.6,1047.9H93.1c-5.1,0-9.3,4.2-9.3,9.3v0c0,5.1,4.2,9.3,9.3,9.3h235.5c5.1,0,9.3-4.2,9.3-9.3v0
					C337.9,1052.1,333.7,1047.9,328.6,1047.9z"/>
			</g>
			<g>
				<path class="st3" d="M312.8,1081.3H108.9c-5.1,0-9.3,4.2-9.3,9.3v0c0,5.1,4.2,9.3,9.3,9.3h203.8c5.1,0,9.3-4.2,9.3-9.3v0
					C322,1085.5,317.9,1081.3,312.8,1081.3z"/>
				<path class="st15" d="M181.7,1081.3h-72.8c-5.1,0-9.3,4.2-9.3,9.3v0c0,5.1,4.2,9.3,9.3,9.3h72.8c5.1,0,9.3-4.2,9.3-9.3v0
					C191,1085.5,186.8,1081.3,181.7,1081.3z"/>
				<path class="st5" d="M328.6,1071.4H93.1c-5.1,0-9.3,4.2-9.3,9.3c0,5.1,4.2,9.3,9.3,9.3h235.5c5.1,0,9.3-4.2,9.3-9.3
					C337.9,1075.5,333.7,1071.4,328.6,1071.4z"/>
			</g>
			<g>
				<path class="st3" d="M312.8,1104.8H108.9c-5.1,0-9.3,4.2-9.3,9.3s4.2,9.3,9.3,9.3h203.8c5.1,0,9.3-4.2,9.3-9.3
					S317.9,1104.8,312.8,1104.8z"/>
				<path class="st15" d="M181.7,1104.8h-72.8c-5.1,0-9.3,4.2-9.3,9.3s4.2,9.3,9.3,9.3h72.8c5.1,0,9.3-4.2,9.3-9.3
					S186.8,1104.8,181.7,1104.8z"/>
				<path class="st5" d="M328.6,1094.8H93.1c-5.1,0-9.3,4.2-9.3,9.3v0c0,5.1,4.2,9.3,9.3,9.3h235.5c5.1,0,9.3-4.2,9.3-9.3v0
					C337.9,1099,333.7,1094.8,328.6,1094.8z"/>
			</g>
			<g>
				<path class="st3" d="M312.8,1128.3H108.9c-5.1,0-9.3,4.2-9.3,9.3v0c0,5.1,4.2,9.3,9.3,9.3h203.8c5.1,0,9.3-4.2,9.3-9.3v0
					C322,1132.4,317.9,1128.3,312.8,1128.3z"/>
				<path class="st15" d="M181.7,1128.3h-72.8c-5.1,0-9.3,4.2-9.3,9.3v0c0,5.1,4.2,9.3,9.3,9.3h72.8c5.1,0,9.3-4.2,9.3-9.3v0
					C191,1132.4,186.8,1128.3,181.7,1128.3z"/>
				<path class="st5" d="M328.6,1118.3H93.1c-5.1,0-9.3,4.2-9.3,9.3c0,5.1,4.2,9.3,9.3,9.3h235.5c5.1,0,9.3-4.2,9.3-9.3
					C337.9,1122.5,333.7,1118.3,328.6,1118.3z"/>
			</g>
		</g>
		<g>
			<g>
				<path class="st3" d="M602.3,1010.9H398.5c-5.1,0-9.3,4.2-9.3,9.3v0c0,5.1,4.2,9.3,9.3,9.3h203.8c5.1,0,9.3-4.2,9.3-9.3v0
					C611.6,1015.1,607.5,1010.9,602.3,1010.9z"/>
				<path class="st15" d="M471.3,1010.9h-72.8c-5.1,0-9.3,4.2-9.3,9.3v0c0,5.1,4.2,9.3,9.3,9.3h72.8c5.1,0,9.3-4.2,9.3-9.3v0
					C480.6,1015.1,476.4,1010.9,471.3,1010.9z"/>
				<path class="st5" d="M618.2,1000.9H382.7c-5.1,0-9.3,4.2-9.3,9.3c0,5.1,4.2,9.3,9.3,9.3h235.5c5.1,0,9.3-4.2,9.3-9.3
					C627.5,1005.1,623.3,1000.9,618.2,1000.9z"/>
			</g>
			<g>
				<path class="st3" d="M602.3,1034.4H398.5c-5.1,0-9.3,4.2-9.3,9.3c0,5.1,4.2,9.3,9.3,9.3h203.8c5.1,0,9.3-4.2,9.3-9.3
					C611.6,1038.5,607.5,1034.4,602.3,1034.4z"/>
				<path class="st15" d="M471.3,1034.4h-72.8c-5.1,0-9.3,4.2-9.3,9.3c0,5.1,4.2,9.3,9.3,9.3h72.8c5.1,0,9.3-4.2,9.3-9.3
					C480.6,1038.5,476.4,1034.4,471.3,1034.4z"/>
				<path class="st5" d="M618.2,1024.4H382.7c-5.1,0-9.3,4.2-9.3,9.3v0c0,5.1,4.2,9.3,9.3,9.3h235.5c5.1,0,9.3-4.2,9.3-9.3v0
					C627.5,1028.6,623.3,1024.4,618.2,1024.4z"/>
			</g>
			<g>
				<path class="st3" d="M602.3,1057.8H398.5c-5.1,0-9.3,4.2-9.3,9.3v0c0,5.1,4.2,9.3,9.3,9.3h203.8c5.1,0,9.3-4.2,9.3-9.3v0
					C611.6,1062,607.5,1057.8,602.3,1057.8z"/>
				<path class="st15" d="M471.3,1057.8h-72.8c-5.1,0-9.3,4.2-9.3,9.3v0c0,5.1,4.2,9.3,9.3,9.3h72.8c5.1,0,9.3-4.2,9.3-9.3v0
					C480.6,1062,476.4,1057.8,471.3,1057.8z"/>
				<path class="st5" d="M618.2,1047.9H382.7c-5.1,0-9.3,4.2-9.3,9.3v0c0,5.1,4.2,9.3,9.3,9.3h235.5c5.1,0,9.3-4.2,9.3-9.3v0
					C627.5,1052.1,623.3,1047.9,618.2,1047.9z"/>
			</g>
			<g>
				<path class="st3" d="M602.3,1081.3H398.5c-5.1,0-9.3,4.2-9.3,9.3v0c0,5.1,4.2,9.3,9.3,9.3h203.8c5.1,0,9.3-4.2,9.3-9.3v0
					C611.6,1085.5,607.5,1081.3,602.3,1081.3z"/>
				<path class="st15" d="M471.3,1081.3h-72.8c-5.1,0-9.3,4.2-9.3,9.3v0c0,5.1,4.2,9.3,9.3,9.3h72.8c5.1,0,9.3-4.2,9.3-9.3v0
					C480.6,1085.5,476.4,1081.3,471.3,1081.3z"/>
				<path class="st5" d="M618.2,1071.4H382.7c-5.1,0-9.3,4.2-9.3,9.3c0,5.1,4.2,9.3,9.3,9.3h235.5c5.1,0,9.3-4.2,9.3-9.3
					C627.5,1075.5,623.3,1071.4,618.2,1071.4z"/>
			</g>
			<g>
				<path class="st3" d="M602.3,1104.8H398.5c-5.1,0-9.3,4.2-9.3,9.3s4.2,9.3,9.3,9.3h203.8c5.1,0,9.3-4.2,9.3-9.3
					S607.5,1104.8,602.3,1104.8z"/>
				<path class="st15" d="M471.3,1104.8h-72.8c-5.1,0-9.3,4.2-9.3,9.3s4.2,9.3,9.3,9.3h72.8c5.1,0,9.3-4.2,9.3-9.3
					S476.4,1104.8,471.3,1104.8z"/>
				<path class="st5" d="M618.2,1094.8H382.7c-5.1,0-9.3,4.2-9.3,9.3v0c0,5.1,4.2,9.3,9.3,9.3h235.5c5.1,0,9.3-4.2,9.3-9.3v0
					C627.5,1099,623.3,1094.8,618.2,1094.8z"/>
			</g>
			<g>
				<path class="st3" d="M602.3,1128.3H398.5c-5.1,0-9.3,4.2-9.3,9.3v0c0,5.1,4.2,9.3,9.3,9.3h203.8c5.1,0,9.3-4.2,9.3-9.3v0
					C611.6,1132.4,607.5,1128.3,602.3,1128.3z"/>
				<path class="st15" d="M471.3,1128.3h-72.8c-5.1,0-9.3,4.2-9.3,9.3v0c0,5.1,4.2,9.3,9.3,9.3h72.8c5.1,0,9.3-4.2,9.3-9.3v0
					C480.6,1132.4,476.4,1128.3,471.3,1128.3z"/>
				<path class="st5" d="M618.2,1118.3H382.7c-5.1,0-9.3,4.2-9.3,9.3c0,5.1,4.2,9.3,9.3,9.3h235.5c5.1,0,9.3-4.2,9.3-9.3
					C627.5,1122.5,623.3,1118.3,618.2,1118.3z"/>
			</g>
		</g>
	</g>
	<g>
		<path class="st3" d="M2578.5,967.3H2288c-12.8,0-23.3,10.5-23.3,23.3v296c0,12.8,10.5,23.3,23.3,23.3h290.5
			c12.8,0,23.3-10.5,23.3-23.3v-296C2601.8,977.8,2591.3,967.3,2578.5,967.3z"/>
		<rect x="2296.6" y="967.3" class="st5" width="63.7" height="342.6"/>
		<path class="st15" d="M2578.5,967.3h-73.6v342.6h73.6c12.8,0,23.3-10.5,23.3-23.3v-296C2601.8,977.8,2591.3,967.3,2578.5,967.3z"
			/>
		<path class="st3" d="M2602.2,957.2h-337.9c-8.3,0-15,6.8-15,15v0c0,8.3,6.8,15,15,15h337.9c8.3,0,15-6.8,15-15v0
			C2617.2,964,2610.5,957.2,2602.2,957.2z"/>
		<path class="st16" d="M2493.5,957.2h-204.2c-8.3,0-15,6.8-15,15v0c0,8.3,6.8,15,15,15h204.2c8.3,0,15-6.8,15-15v0
			C2508.5,964,2501.8,957.2,2493.5,957.2z"/>
		<g>
			<path class="st15" d="M2632.4,1007.1h-48.9c-5.8,0-10.5,4.7-10.5,10.5c0,5.8,4.7,10.5,10.5,10.5h48.9c5.8,0,10.5-4.7,10.5-10.5
				C2642.8,1011.8,2638.1,1007.1,2632.4,1007.1z"/>
			<path class="st3" d="M2283.1,1007.1h-48.9c-5.8,0-10.5,4.7-10.5,10.5c0,5.8,4.7,10.5,10.5,10.5h48.9c5.8,0,10.5-4.7,10.5-10.5
				C2293.5,1011.8,2288.8,1007.1,2283.1,1007.1z"/>
		</g>
	</g>
	<path class="st3" d="M46.8,841.2c0,40,32.7,72.8,72.8,72.8h727.2c40,0,72.8-32.7,72.8-72.8V727.7H46.8V841.2z"/>
	<path class="st17" d="M861.9,355.1H104.5c-31.7,0-57.7,26-57.7,57.7v314.9h872.8V412.8C919.6,381,893.6,355.1,861.9,355.1z"/>
	<path class="st15" d="M793.3,841.2c0,40-32.7,72.8-72.8,72.8h126.3c40,0,72.8-32.7,72.8-72.8V727.7H793.3V841.2z"/>
	<path class="st5" d="M140,841.2V727.7H46.8v113.5c0,40,32.7,72.8,72.8,72.8h93.1C172.7,914,140,881.2,140,841.2z"/>
	<path class="st0" d="M855.8,498.6H110.6c-6.4,0-11.6,5.2-11.6,11.6c0,6.4,5.2,11.6,11.6,11.6h745.2c6.4,0,11.6-5.2,11.6-11.6
		C867.4,503.9,862.2,498.6,855.8,498.6z"/>
	<path class="st0" d="M855.8,665.4H110.6c-6.4,0-11.6,5.2-11.6,11.6c0,6.4,5.2,11.6,11.6,11.6h745.2c6.4,0,11.6-5.2,11.6-11.6
		C867.4,670.7,862.2,665.4,855.8,665.4z"/>
	<path class="st3" d="M763.2,1005.3h-56.5c-6.6,0-11.9,5.4-11.9,11.9v117.7c0,6.6,5.4,11.9,11.9,11.9h56.5c6.6,0,11.9-5.4,11.9-11.9
		v-117.7C775.1,1010.7,769.8,1005.3,763.2,1005.3z"/>
	<path class="st3" d="M1264.9,1120.8c0,14.3,11.7,26,26,26h299.7c14.3,0,26-11.7,26-26v-46.7h-351.7V1120.8z"/>
	<path class="st3" d="M1655.5,1120.8c0,14.3,11.7,26,26,26h299.7c14.3,0,26-11.7,26-26v-46.7h-351.7V1120.8z"/>
	<path class="st5" d="M1618.4,1074.1h-355.4c-4.1,0-7.5,3.4-7.5,7.5c0,4.1,3.4,7.5,7.5,7.5h355.4c4.1,0,7.5-3.4,7.5-7.5
		C1626,1077.5,1622.6,1074.1,1618.4,1074.1z"/>
	<path class="st18" d="M1164.3,1051.6c-14.8,0-27.4,9.4-32.2,22.5c-5.8-4.5-13.1-7.2-20.9-7.2c-2.9,0-5.7,0.4-8.3,1
		c-3.1-15.7-17-27.6-33.6-27.6c-14.2,0-26.5,8.7-31.6,21.1c-2.4-0.6-5-0.8-7.6-0.8c-3,0-5.9,0.4-8.7,1.1
		c-5.1-12.5-17.4-21.4-31.7-21.4c-13.6,0-25.3,7.9-30.9,19.4c-6.1-5.5-14.1-8.8-22.9-8.8c-18.9,0-34.2,15.3-34.2,34.2
		c0,2.7,0.3,5.3,0.9,7.8h295.3c0.5-2.3,0.8-4.7,0.8-7.2C1198.6,1067,1183.2,1051.6,1164.3,1051.6z"/>
	<g>
		<path class="st19" d="M317.5,593.7h-92.8c-7.6,0-13.9,6.2-13.9,13.9v13.5c0,7.6,6.2,13.9,13.9,13.9h92.8c7.6,0,13.9-6.2,13.9-13.9
			v-13.5C331.4,599.9,325.1,593.7,317.5,593.7z"/>
		<g>
			
				<ellipse transform="matrix(0.866 -0.5001 0.5001 0.866 -242.4633 289.409)" class="st20" cx="418.7" cy="597.1" rx="5.6" ry="13.1"/>
			<circle class="st21" cx="430" cy="621.1" r="24"/>
		</g>
		<g>
			<ellipse transform="matrix(0.5 -0.866 0.866 0.5 -283.6534 716.6732)" class="st20" cx="478.8" cy="604" rx="13.1" ry="5.6"/>
			<circle class="st21" cx="467.6" cy="628" r="24"/>
		</g>
		<g>
			
				<ellipse transform="matrix(9.397772e-02 -0.9956 0.9956 9.397772e-02 -138.3372 1049.8412)" class="st20" cx="507.6" cy="600.9" rx="13.1" ry="5.6"/>
			
				<ellipse transform="matrix(0.9092 -0.4164 0.4164 0.9092 -215.185 268.2762)" class="st21" cx="507.4" cy="627.4" rx="24" ry="24"/>
		</g>
		<g>
			
				<ellipse transform="matrix(0.8199 -0.5725 0.5725 0.8199 -246.4086 429.8508)" class="st20" cx="560" cy="606.6" rx="13.1" ry="5.6"/>
			
				<ellipse transform="matrix(0.4237 -0.9058 0.9058 0.4237 -253.8042 848.1625)" class="st21" cx="539.7" cy="623.6" rx="24" ry="24"/>
		</g>
		<g>
			<path class="st3" d="M544.5,647.7H412.7c-4.9,0-8.9,4-8.9,8.9v0c0,4.9,4,8.9,8.9,8.9h131.9c4.9,0,8.9-4,8.9-8.9v0
				C553.4,651.7,549.4,647.7,544.5,647.7z"/>
			<path class="st5" d="M561.2,635H396.1c-4.9,0-8.9,4-8.9,8.9c0,4.9,4,8.9,8.9,8.9h165.1c4.9,0,8.9-4,8.9-8.9
				C570,638.9,566.1,635,561.2,635z"/>
		</g>
		<g>
			<path class="st3" d="M337,647.7H205.2c-4.9,0-8.9,4-8.9,8.9v0c0,4.9,4,8.9,8.9,8.9H337c4.9,0,8.9-4,8.9-8.9v0
				C345.9,651.7,341.9,647.7,337,647.7z"/>
			<path class="st5" d="M353.6,635H188.5c-4.9,0-8.9,4-8.9,8.9c0,4.9,4,8.9,8.9,8.9h165.1c4.9,0,8.9-4,8.9-8.9
				C362.5,638.9,358.5,635,353.6,635z"/>
		</g>
		<g>
			<circle class="st22" cx="633.8" cy="632.9" r="11.8"/>
			<circle class="st22" cx="655.3" cy="630.2" r="11.8"/>
			<circle class="st22" cx="678.6" cy="634.6" r="11.8"/>
			<circle class="st22" cx="696.6" cy="633.1" r="11.8"/>
			<circle class="st22" cx="714.4" cy="626.2" r="11.8"/>
			<circle class="st22" cx="733.2" cy="634.9" r="11.8"/>
			<circle class="st22" cx="756.8" cy="632.8" r="11.8"/>
		</g>
		<g>
			<path class="st3" d="M761.2,647.7H629.4c-4.9,0-8.9,4-8.9,8.9v0c0,4.9,4,8.9,8.9,8.9h131.9c4.9,0,8.9-4,8.9-8.9v0
				C770.1,651.7,766.1,647.7,761.2,647.7z"/>
			<path class="st5" d="M777.8,635H612.7c-4.9,0-8.9,4-8.9,8.9c0,4.9,4,8.9,8.9,8.9h165.1c4.9,0,8.9-4,8.9-8.9
				C786.7,638.9,782.7,635,777.8,635z"/>
		</g>
	</g>
	<g>
		<path class="st3" d="M544.5,482.9H412.7c-4.9,0-8.9,4-8.9,8.9c0,4.9,4,8.9,8.9,8.9h131.9c4.9,0,8.9-4,8.9-8.9
			C553.4,486.9,549.4,482.9,544.5,482.9z"/>
		<path class="st5" d="M561.2,470.1H396.1c-4.9,0-8.9,4-8.9,8.9c0,4.9,4,8.9,8.9,8.9h165.1c4.9,0,8.9-4,8.9-8.9
			C570,474.1,566.1,470.1,561.2,470.1z"/>
	</g>
	<g>
		<path class="st3" d="M337,482.9H205.2c-4.9,0-8.9,4-8.9,8.9c0,4.9,4,8.9,8.9,8.9H337c4.9,0,8.9-4,8.9-8.9
			C345.9,486.9,341.9,482.9,337,482.9z"/>
		<path class="st5" d="M353.6,470.1H188.5c-4.9,0-8.9,4-8.9,8.9c0,4.9,4,8.9,8.9,8.9h165.1c4.9,0,8.9-4,8.9-8.9
			C362.5,474.1,358.5,470.1,353.6,470.1z"/>
	</g>
	<g>
		<path class="st3" d="M761.2,482.9H629.4c-4.9,0-8.9,4-8.9,8.9c0,4.9,4,8.9,8.9,8.9h131.9c4.9,0,8.9-4,8.9-8.9
			C770.1,486.9,766.1,482.9,761.2,482.9z"/>
		<path class="st5" d="M777.8,470.1H612.7c-4.9,0-8.9,4-8.9,8.9c0,4.9,4,8.9,8.9,8.9h165.1c4.9,0,8.9-4,8.9-8.9
			C786.7,474.1,782.7,470.1,777.8,470.1z"/>
	</g>
	<path class="st23" d="M330.5,435h-16.2c-9.7,0-17.6,7.9-17.6,17.6c0-9.7-7.9-17.6-17.6-17.6H263c-9.7,0-17.6,7.9-17.6,17.6
		c0-9.7-7.9-17.6-17.6-17.6h-16.2c-9.7,0-17.6,7.9-17.6,17.6v17.6h51.4h51.4h51.4v-17.6C348.1,442.9,340.2,435,330.5,435z"/>
	<g>
		<polygon class="st19" points="410.1,470.1 475.5,470.1 429.3,413.2 		"/>
		<polygon class="st19" points="445.9,470.1 511.3,470.1 465.1,413.2 		"/>
		<polygon class="st19" points="481.7,470.1 547.1,470.1 500.9,413.2 		"/>
	</g>
	<g>
		<path class="st3" d="M874.2,1120.8c0,14.3,11.7,26,26,26h299.7c14.3,0,26-11.7,26-26v-46.7H874.2V1120.8z"/>
		<path class="st5" d="M1227.8,1074.1H872.4c-4.1,0-7.5,3.4-7.5,7.5c0,4.1,3.4,7.5,7.5,7.5h355.4c4.1,0,7.5-3.4,7.5-7.5
			C1235.3,1077.5,1231.9,1074.1,1227.8,1074.1z"/>
	</g>
	<g>
		<circle class="st10" cx="550.1" cy="1289.8" r="52"/>
		<path class="st24" d="M404.3,1054.1c-24.2,0-46.2,9.9-62.2,25.9c-16,16-25.9,38-25.9,62.2c0,6.1,5,11.1,11.1,11.1
			c6.1,0,11.1-5,11.1-11.1c0-18.1,7.4-34.6,19.4-46.5c12-12,28.4-19.4,46.6-19.4c18.1,0,34.6,7.4,46.5,19.4
			c12,12,19.4,28.4,19.4,46.5c0,6.1,5,11.1,11.1,11.1c6.1,0,11.1-5,11.1-11.1c0-24.2-9.9-46.2-25.9-62.2
			C450.6,1064.1,428.6,1054.1,404.3,1054.1z"/>
		<g>
			<rect x="337.7" y="1588" class="st12" width="57.1" height="170"/>
			<path class="st25" d="M396.7,1672.6c-7,0-12.7,5.7-12.7,12.7v19.5c0,7,5.7,12.7,12.7,12.7c7,0,12.7-5.7,12.7-12.7v-19.5
				C409.4,1678.3,403.7,1672.6,396.7,1672.6z"/>
			<path class="st11" d="M424.7,1703.4h-95.2v56c0,8,6.5,14.5,14.5,14.5h101.4c8,0,14.5-6.5,14.5-14.5v-20.8
				C460,1719.2,444.1,1703.4,424.7,1703.4z"/>
			<path class="st26" d="M343.7,1695.1h-3c-6.2,0-11.2,5-11.2,11.2c0,6.2,5,11.2,11.2,11.2h3c6.2,0,11.2-5,11.2-11.2
				C354.9,1700.1,349.9,1695.1,343.7,1695.1z"/>
			<path class="st5" d="M458.8,1748.6H330.7c-3.4,0-6.2,2.8-6.2,6.2v14.5c0,3.4,2.8,6.2,6.2,6.2h128.1c3.4,0,6.2-2.8,6.2-6.2v-14.5
				C465,1751.4,462.2,1748.6,458.8,1748.6z"/>
		</g>
		<rect x="319.6" y="1402" class="st15" width="156.1" height="185.9"/>
		<path class="st12" d="M485.8,870.8L485.8,870.8c-49.4,0-89.9,40.4-89.9,89.9v51.4c0,49.4,40.4,89.9,89.9,89.9h0
			c49.4,0,89.9-40.4,89.9-89.9v-51.4C575.7,911.2,535.3,870.8,485.8,870.8z"/>
		<path class="st12" d="M445.5,969.8c-27.2,0-49.5,22.3-49.5,49.5v73.8c0,27.2,22.3,49.5,49.5,49.5c27.2,0,49.5-22.3,49.5-49.5
			v-73.8C495,992.1,472.7,969.8,445.5,969.8z"/>
		<path class="st26" d="M424.2,1070.3L424.2,1070.3c-57.5,0-104.6,47.1-104.6,104.6V1402h209.2v-227.1
			C528.8,1117.4,481.7,1070.3,424.2,1070.3z"/>
		<path class="st3" d="M372.7,1402h-53.1c0,33,22.6,60.6,53.1,68.4V1588h156.1V1402h-68.1H372.7z"/>
		<g>
			<rect x="471.7" y="1588" class="st12" width="57.1" height="170"/>
			<path class="st25" d="M530.7,1672.6c-7,0-12.7,5.7-12.7,12.7v19.5c0,7,5.7,12.7,12.7,12.7c7,0,12.7-5.7,12.7-12.7v-19.5
				C543.4,1678.3,537.7,1672.6,530.7,1672.6z"/>
			<path class="st11" d="M558.7,1703.4h-95.2v56c0,8,6.5,14.5,14.5,14.5h101.4c8,0,14.5-6.5,14.5-14.5v-20.8
				C594,1719.2,578.1,1703.4,558.7,1703.4z"/>
			<path class="st26" d="M477.7,1695.1h-3c-6.2,0-11.2,5-11.2,11.2c0,6.2,5,11.2,11.2,11.2h3c6.2,0,11.2-5,11.2-11.2
				C488.9,1700.1,483.9,1695.1,477.7,1695.1z"/>
			<path class="st5" d="M592.8,1748.6H464.7c-3.4,0-6.2,2.8-6.2,6.2v14.5c0,3.4,2.8,6.2,6.2,6.2h128.1c3.4,0,6.2-2.8,6.2-6.2v-14.5
				C599,1751.4,596.2,1748.6,592.8,1748.6z"/>
		</g>
		<path class="st24" d="M451.1,1061.4c-24.2,0-46.2,9.9-62.2,25.9c-16,16-25.9,38-25.9,62.2c0,6.1,5,11.1,11.1,11.1
			c6.1,0,11.1-5,11.1-11.1c0-18.1,7.4-34.6,19.4-46.5c12-12,28.4-19.4,46.6-19.4c18.1,0,34.6,7.4,46.5,19.4
			c12,12,19.4,28.4,19.4,46.5c0,6.1,5,11.1,11.1,11.1c6.1,0,11.1-5,11.1-11.1c0-24.2-9.9-46.2-25.9-62.2
			C497.4,1071.3,475.3,1061.4,451.1,1061.4z"/>
		<path class="st26" d="M502.2,1092.1c-24.4,0-44.3,19.8-44.3,44.3v176.2c0,24.4,19.8,44.3,44.3,44.3c24.4,0,44.3-19.8,44.3-44.3
			v-176.2C546.5,1112,526.7,1092.1,502.2,1092.1z"/>
		<path class="st10" d="M534.4,1263.6l-38.1,5.2c-24.2,3.2-41.1,25.5-37.9,49.6c3.2,24.2,25.5,41.1,49.6,37.9l38.1-5.2
			c24.2-3.2,41.1-25.5,37.9-49.6C580.8,1277.3,558.6,1260.4,534.4,1263.6z"/>
		<path class="st12" d="M537.1,1263.3c-0.9,0.1-1.8,0.2-2.7,0.3l-38.1,5.2c-24.2,3.2-41.1,25.5-37.9,49.6
			c1.6,11.6,7.4,21.5,15.8,28.3c0.9-0.1,1.8-0.2,2.7-0.3l38.1-5.2c24.2-3.2,41.1-25.5,37.9-49.6
			C551.3,1280.1,545.5,1270.2,537.1,1263.3z"/>
		<g>
			<path class="st11" d="M367.9,1097h-54.6c-38.9,0-70.7,31.8-70.7,70.7v163.6c0,38.9,31.8,70.7,70.7,70.7h54.6
				c38.9,0,70.7-31.8,70.7-70.7v-163.6C438.7,1128.8,406.8,1097,367.9,1097z"/>
			<path class="st24" d="M367.9,1097h-32.5c38.9,0,70.7,31.8,70.7,70.7v163.6c0,38.9-31.8,70.7-70.7,70.7h32.5
				c38.9,0,70.7-31.8,70.7-70.7v-163.6C438.7,1128.8,406.8,1097,367.9,1097z"/>
			<path class="st24" d="M426.3,1253.1h-16.1c-12.6,0-22.8,10.3-22.8,22.8v54.9c0,12.6,10.3,22.8,22.8,22.8h16.1
				c12.6,0,22.8-10.3,22.8-22.8V1276C449.1,1263.4,438.8,1253.1,426.3,1253.1z"/>
		</g>
		<path class="st11" d="M350.4,1269.2H246c-14.8,0-26.8,12.1-26.8,26.8v48.6c0,14.8,12.1,26.8,26.8,26.8h104.3
			c14.8,0,26.8-12.1,26.8-26.8V1296C377.2,1281.3,365.1,1269.2,350.4,1269.2z"/>
		<path class="st24" d="M347.4,1269.2h-36.9c16.4,0,29.7,12.1,29.7,26.8v48.6c0,14.8-13.4,26.8-29.7,26.8h36.9
			c16.4,0,29.7-12.1,29.7-26.8V1296C377.2,1281.3,363.8,1269.2,347.4,1269.2z"/>
		<path class="st4" d="M598.5,912.2c2.2-5.6,3.4-11.7,3.4-18.1c0-27.5-22.3-49.8-49.8-49.8c-7,0-13.7,1.5-19.8,4.1
			c-6.8-19.4-25.3-33.2-47-33.2c-25.9,0-47.1,19.7-49.6,44.9c-9.1-9.7-22-15.8-36.4-15.8c-27.5,0-49.8,22.3-49.8,49.8
			c0,16.4,7.9,30.9,20.1,40c-27,4.2-47.7,27.5-47.7,55.7c0,31.1,25.3,56.4,56.4,56.4c2.5,0,5-0.2,7.4-0.5
			c8.7,17.3,26.7,29.1,47.4,29.1c20.4,0,38.1-11.5,47-28.4c8.1,5,17.7,7.9,27.9,7.9c26.1,0,47.7-18.8,52.2-43.5
			c5.1,1.7,10.6,2.5,16.3,2.5c29.3,0,53.1-23.8,53.1-53.1C629.4,939,616.7,920.6,598.5,912.2z"/>
	</g>
	<g>
		<rect x="908.6" y="1356.7" class="st15" width="207.7" height="232.6"/>
		<ellipse class="st15" cx="953.6" cy="1420.7" rx="79.8" ry="79.8"/>
		<path class="st12" d="M1012.4,877.5L1012.4,877.5c-49.1,0-89.2,40.1-89.2,89.2v51c0,49.1,40.1,89.2,89.2,89.2h0
			c49.1,0,89.2-40.1,89.2-89.2v-51C1101.6,917.6,1061.5,877.5,1012.4,877.5z"/>
		<path class="st12" d="M1033.6,975.8c-27,0-49.1,22.1-49.1,49.2v73.3c0,27,22.1,49.1,49.1,49.1c27,0,49.1-22.1,49.1-49.1v-73.3
			C1082.7,997.9,1060.6,975.8,1033.6,975.8z"/>
		<path class="st27" d="M1012.4,1075.5L1012.4,1075.5c-57.1,0-103.8,39.9-103.8,88.7v192.5h207.7v-192.5
			C1116.3,1115.4,1069.5,1075.5,1012.4,1075.5z"/>
		<path class="st28" d="M1072.2,1164.2v192.5h44.1v-192.5c0-20.5-8.2-39.4-22-54.5C1080.4,1124.8,1072.2,1143.7,1072.2,1164.2z"/>
		<path class="st4" d="M1032.4,872.2c-47.8,0-81.6,44.8-75.5,100.1c6.1,55.3,49.8,100.1,97.6,100.1c47.8,0,81.6-44.8,75.5-100.1
			C1123.9,917,1080.2,872.2,1032.4,872.2z"/>
		<circle class="st4" cx="982.5" cy="940.1" r="72.4"/>
		<circle class="st4" cx="1113.1" cy="914.8" r="49.2"/>
		<path class="st12" d="M876.5,1103.7l-102.8-86.5c-19.4-16.3-48.4-13.8-64.7,5.6c-16.3,19.4-13.8,48.4,5.6,64.7l102.8,86.5
			c19.4,16.3,48.4,13.8,64.7-5.6C898.4,1149,895.9,1120,876.5,1103.7z"/>
		<path class="st27" d="M977.4,1098.5l-128.4-5.6c-25.4-1.1-46.8,18.6-47.9,44c-1.1,25.4,18.6,46.8,44,47.9l128.4,5.6
			c25.4,1.1,46.8-18.6,47.9-44C1022.4,1121.1,1002.8,1099.6,977.4,1098.5z"/>
		<path class="st27" d="M1115,1104.7c-11.7-22.6-39.6-31.4-62.2-19.6s-31.4,39.6-19.6,62.2l67.4,129.2
			c11.7,22.6,39.6,31.4,62.2,19.6c22.6-11.7,31.4-39.6,19.6-62.2L1115,1104.7z"/>
		<path class="st19" d="M999.7,1304.7h-91.1c-24.2,0-43.9,19.8-43.9,43.9v41.9c0,24.2,19.8,43.9,43.9,43.9h91.1
			c24.2,0,43.9-19.8,43.9-43.9v-41.9C1043.6,1324.4,1023.8,1304.7,999.7,1304.7z"/>
		<path class="st12" d="M1173.9,1222.6c-18-17.9-47.1-17.8-65.1,0.2c-17.9,18-17.8,47.1,0.2,65.1l72,71.4
			c18,17.9,47.1,17.8,65.1-0.2s17.8-47.1-0.2-65.1L1173.9,1222.6z"/>
		<circle class="st12" cx="753.4" cy="1041.3" r="58.5"/>
		<g>
			<g>
				<rect x="926.6" y="1589.3" class="st12" width="76.5" height="168.7"/>
				<g>
					<path class="st12" d="M995.2,1723.6h-68.6v15.2c0,8.4,6.8,15.2,15.2,15.2h53.4c8.4,0,15.2-6.8,15.2-15.2
						S1003.5,1723.6,995.2,1723.6z"/>
					<path class="st27" d="M1016.8,1737.2h-90.2v20c0,11,9,20,20,20h70.2c11,0,20-9,20-20
						C1036.8,1746.2,1027.9,1737.2,1016.8,1737.2z"/>
				</g>
			</g>
			<g>
				<rect x="1026.1" y="1589.3" class="st12" width="76.5" height="168.7"/>
				<g>
					<path class="st12" d="M1094.7,1723.6h-68.6v15.2c0,8.4,6.8,15.2,15.2,15.2h53.4c8.4,0,15.2-6.8,15.2-15.2
						S1103,1723.6,1094.7,1723.6z"/>
					<path class="st27" d="M1116.4,1737.2h-90.2v20c0,11,9,20,20,20h70.2c11,0,20-9,20-20
						C1136.4,1746.2,1127.4,1737.2,1116.4,1737.2z"/>
				</g>
			</g>
		</g>
		<circle class="st12" cx="1221.4" cy="1313.6" r="58.5"/>
		<path class="st19" d="M1089.6,1062.7c-6.2-7.2-17.1-8-24.3-1.8c-7.2,6.2-8,17.1-1.8,24.3c10.4,12,17.4,27.7,20.8,45.5
			c3.5,18.5,3,39.4-1.7,61c-7.8,35.9-26.1,68.9-49.9,93.8c-23.2,24.3-51.6,40.7-80.1,44.2c-9.5,1.1-16.3,9.7-15.1,19.2
			c1.1,9.5,9.7,16.3,19.2,15.1c36.7-4.5,72.3-24.8,101-54.7c28.1-29.3,49.6-68.1,58.8-110.3c5.7-26.1,6.2-51.6,1.8-74.6
			C1113.7,1100.6,1104,1079.4,1089.6,1062.7z"/>
	</g>
	<g>
		<g>
			<path class="st25" d="M1518,1655.6c-8.1,0-14.8,6.7-14.8,14.8v22.7c0,8.2,6.7,14.8,14.8,14.8c8.2,0,14.8-6.7,14.8-14.8v-22.7
				C1532.8,1662.2,1526.1,1655.6,1518,1655.6z"/>
			<path class="st29" d="M1550.6,1691.4h-110.9v65.3c0,9.3,7.6,16.9,16.9,16.9h118.2c9.3,0,16.9-7.6,16.9-16.9v-24.2
				C1591.7,1709.9,1573.2,1691.4,1550.6,1691.4z"/>
			<path class="st5" d="M1456.2,1681.7h-3.5c-7.2,0-13.1,5.9-13.1,13.1c0,7.2,5.9,13.1,13.1,13.1h3.5c7.2,0,13.1-5.9,13.1-13.1
				C1469.3,1687.6,1463.4,1681.7,1456.2,1681.7z"/>
			<path class="st5" d="M1590.4,1744.2H1441c-4,0-7.3,3.3-7.3,7.3v16.9c0,4,3.3,7.3,7.3,7.3h149.4c4,0,7.3-3.3,7.3-7.3v-16.9
				C1597.6,1747.4,1594.4,1744.2,1590.4,1744.2z"/>
		</g>
		<g>
			<path class="st25" d="M1625.2,1655.6c-8.2,0-14.8,6.7-14.8,14.8v22.7c0,8.2,6.7,14.8,14.8,14.8s14.8-6.7,14.8-14.8v-22.7
				C1640,1662.2,1633.3,1655.6,1625.2,1655.6z"/>
			<path class="st30" d="M1657.8,1691.4h-110.9v65.3c0,9.3,7.6,16.9,16.9,16.9H1682c9.3,0,16.9-7.6,16.9-16.9v-24.2
				C1698.9,1709.9,1680.4,1691.4,1657.8,1691.4z"/>
			<path class="st5" d="M1563.4,1681.7h-3.5c-7.2,0-13.1,5.9-13.1,13.1c0,7.2,5.9,13.1,13.1,13.1h3.5c7.2,0,13.1-5.9,13.1-13.1
				C1576.5,1687.6,1570.6,1681.7,1563.4,1681.7z"/>
			<path class="st5" d="M1697.6,1744.2h-149.4c-4,0-7.3,3.3-7.3,7.3v16.9c0,4,3.3,7.3,7.3,7.3h149.4c4,0,7.3-3.3,7.3-7.3v-16.9
				C1704.9,1747.4,1701.6,1744.2,1697.6,1744.2z"/>
		</g>
		<g>
			<path class="st12" d="M1570.1,850.7L1570.1,850.7c-54,0-98.2,44.2-98.2,98.2v24.6c0,54,44.2,98.2,98.2,98.2h0
				c54,0,98.2-44.2,98.2-98.2v-24.6C1668.4,894.9,1624.2,850.7,1570.1,850.7z"/>
			<path class="st12" d="M1576.2,993.6h-31.9c-19.2,0-34.9,15.7-34.9,34.9v30.6c0,19.2,15.7,34.9,34.9,34.9h31.9
				c19.2,0,34.9-15.7,34.9-34.9v-30.6C1611.1,1009.3,1595.4,993.6,1576.2,993.6z"/>
			<path class="st4" d="M1471.9,989.6c0,24.8,20.3,45,45,45h52.8c24.8,0,45-20.2,45-45v-45h-142.8V989.6z"/>
			<circle class="st10" cx="1616.6" cy="964.2" r="29.7"/>
			<path class="st31" d="M1706,926.7h-107.1c-7.2,0-13.1,5.9-13.1,13.1s5.9,13.1,13.1,13.1H1706c7.2,0,13.1-5.9,13.1-13.1
				S1713.2,926.7,1706,926.7z"/>
			<path class="st31" d="M1607.7,831.5h-75c-33.4,0-60.7,27.3-60.7,60.7v60.7h196.4v-60.7C1668.4,858.8,1641,831.5,1607.7,831.5z"/>
			<path class="st4" d="M1521.2,880.6h-0.7c-19.5,0-35.4,16-35.4,35.4v12.4h71.6V916C1556.7,896.5,1540.7,880.6,1521.2,880.6z"/>
			<path class="st29" d="M1485.1,940.6c0,6.7,5.5,12.2,12.2,12.2h59.4v-24.5h-59.4C1490.6,928.4,1485.1,933.9,1485.1,940.6z"/>
		</g>
		<path class="st23" d="M1545.5,1066.3c-58.4,0-106.3,47.8-106.3,106.3v156.6c0,58.4,47.8,106.2,106.3,106.2
			c58.4,0,106.3-47.8,106.3-106.2v-156.6C1651.7,1114.1,1603.9,1066.3,1545.5,1066.3z"/>
		<g>
			<rect x="1439.2" y="1335.7" class="st24" width="121.5" height="367.7"/>
			<g>
				<rect x="1530.2" y="1335.7" class="st11" width="121.5" height="367.7"/>
				<path class="st11" d="M1530.2,1426.6c50.2,0,91-40.7,91-90.9h-181.9C1439.2,1385.9,1479.9,1426.6,1530.2,1426.6z"/>
			</g>
		</g>
		<g>
			<path class="st29" d="M1519,1045c-8.6-8.6-20.4-13.9-33.5-13.9c-13,0-24.9,5.3-33.5,13.9c-8.6,8.6-13.9,20.4-13.9,33.5v26.5
				c0,6.1,5,11.1,11.1,11.1c6.1,0,11.1-5,11.1-11.1v-26.5c0-6.9,2.8-13.2,7.4-17.8c4.6-4.6,10.9-7.4,17.8-7.4s13.2,2.8,17.8,7.4l0,0
				c4.6,4.6,7.4,10.9,7.4,17.8v26.5c0,6.1,5,11.1,11.1,11.1c6.1,0,11.1-5,11.1-11.1v-26.5C1532.9,1065.4,1527.6,1053.6,1519,1045
				L1519,1045z"/>
			<path class="st29" d="M1506.1,1082.4h-41.2c-46,0-83.6,37.6-83.6,83.6v116.1c0,46,37.6,83.6,83.6,83.6h41.2
				c46,0,83.6-37.6,83.6-83.6v-116.1C1589.7,1120.1,1552.1,1082.4,1506.1,1082.4z"/>
		</g>
		<path class="st29" d="M1491.8,1252.5h-102.6c-14.9,0-27.1,12.2-27.1,27.1v59.1c0,14.9,12.2,27.1,27.1,27.1h102.6
			c14.9,0,27.1-12.2,27.1-27.1v-59.1C1518.9,1264.7,1506.7,1252.5,1491.8,1252.5z"/>
		<path class="st30" d="M1497.1,1334.8c0,17,13.9,31,31,31h30.7c17,0,31-13.9,31-31v-73.2h-92.6V1334.8z"/>
		<circle class="st32" cx="1423.5" cy="1295.8" r="10.6"/>
		<path class="st29" d="M1596.3,1056.6c-24.4,0-46.5,10-62.5,26s-26,38.2-26,62.5v63.6c0,12.2,9.9,22.1,22.1,22.1
			c12.2,0,22.1-9.9,22.1-22.1v-63.6c0-12.2,5-23.2,13-31.3c8-8,19.1-13,31.3-13c12.2,0,23.2,5,31.3,13c8,8,13,19.1,13,31.3v63.6
			c0,12.2,9.9,22.1,22.1,22.1s22.1-9.9,22.1-22.1v-63.6c0-24.4-10-46.5-26-62.5C1642.8,1066.6,1620.7,1056.6,1596.3,1056.6z"/>
		<path class="st12" d="M1761.3,1122c-19.8-14.2-47.3-9.7-61.6,10l-83.8,116.7c-14.2,19.8-9.7,47.3,10,61.6
			c19.8,14.2,47.3,9.7,61.6-10l83.8-116.7C1785.6,1163.8,1781.1,1136.2,1761.3,1122z"/>
		<path class="st23" d="M1639.6,1126.6c-9.2-22.6-35-33.5-57.6-24.4c-22.6,9.2-33.5,35-24.4,57.6l53.1,131.3
			c9.2,22.6,34.9,33.5,57.6,24.4c22.6-9.2,33.5-34.9,24.4-57.6L1639.6,1126.6z"/>
	</g>
	<rect y="1776" class="st33" width="3000" height="224"/>
	<g>
		<path class="st3" d="M2701.9,990.6v296c0,12.8,10.5,23.3,23.3,23.3H3000V967.3h-274.8C2712.4,967.3,2701.9,977.8,2701.9,990.6z"/>
		<rect x="2733.7" y="967.3" class="st5" width="63.7" height="342.6"/>
		<rect x="2942" y="967.3" class="st15" width="58" height="342.6"/>
		<path class="st3" d="M2686.4,972.2L2686.4,972.2c0,8.3,6.8,15,15,15H3000v-30h-298.5C2693.2,957.2,2686.4,964,2686.4,972.2z"/>
		<path class="st16" d="M2930.7,957.2h-204.2c-8.3,0-15,6.8-15,15v0c0,8.3,6.8,15,15,15h204.2c8.3,0,15-6.8,15-15v0
			C2945.7,964,2938.9,957.2,2930.7,957.2z"/>
		<path class="st3" d="M2720.2,1007.1h-48.9c-5.8,0-10.5,4.7-10.5,10.5c0,5.8,4.7,10.5,10.5,10.5h48.9c5.8,0,10.5-4.7,10.5-10.5
			C2730.7,1011.8,2726,1007.1,2720.2,1007.1z"/>
	</g>
	<rect x="2076.1" y="1286.6" class="st13" width="923.9" height="489"/>
	<path class="st26" d="M741.8,433.1c-9,0-17.1,3.4-23.2,9.1c-6.1-5.6-14.3-9.1-23.2-9.1c-9,0-17.1,3.4-23.2,9.1
		c-6.1-5.6-14.3-9.1-23.2-9.1c-18.9,0-34.3,15.3-34.3,34.3c0,0.9,0,1.8,0.1,2.7h46.5H683h24.6h21.8h46.5c0.1-0.9,0.1-1.8,0.1-2.7
		C776,448.5,760.7,433.1,741.8,433.1z"/>
</g>
</svg>
