<?xml version="1.0" encoding="utf-8"?>
<svg viewBox="0 0 32 32" xmlns="http://www.w3.org/2000/svg">
  <path d="M30 9H2a1 1 0 0 0-1 1v20a1 1 0 0 0 1 1h22a1 1 0 0 0 .71-.29l6-6A1 1 0 0 0 31 24V10a1 1 0 0 0-1-1Z" style="fill: rgb(99, 115, 129); opacity: 0.4;"/>
  <path d="M30.71 24.71A1 1 0 0 0 31 24h-6a1 1 0 0 0-1 1v6a1 1 0 0 0 .71-.29zM26 19H6a1 1 0 0 1 0-2h20a1 1 0 0 1 0 2zm0 4H6a1 1 0 0 1 0-2h20a1 1 0 0 1 0 2zm-7 4H6a1 1 0 0 1 0-2h13a1 1 0 0 1 0 2zm0-17a1 1 0 0 0-1 1 2 2 0 0 1-4 0V6.5a3.5 3.5 0 0 1 7 0V9h2V6.5a5.5 5.5 0 0 0-11 0V11a4 4 0 0 0 8 0 1 1 0 0 0-1-1z" style="fill: rgb(99, 115, 129);"/>
</svg>